<?xml version="1.0" encoding="UTF-8"?>
<svg version="1.1" xmlns="http://www.w3.org/2000/svg" width="1849" height="552">
<path d="M0 0 C2.70801637 2.19025258 5.34544582 4.43928348 7.96484375 6.734375 C9.05925781 7.64703125 9.05925781 7.64703125 10.17578125 8.578125 C18.97755909 15.99724809 25.79350281 25.16092459 32.79882812 34.22851562 C33.78656906 35.50414085 34.78827075 36.76893713 35.79296875 38.03125 C36.96484375 39.734375 36.96484375 39.734375 36.96484375 41.734375 C37.61332275 41.40751709 38.26180176 41.08065918 38.92993164 40.74389648 C46.26369097 37.05136976 53.61067323 33.38606031 60.96484375 29.734375 C61.79387207 29.32010254 62.62290039 28.90583008 63.47705078 28.47900391 C65.50867769 27.46790264 67.54708328 26.4727385 69.58984375 25.484375 C70.69585937 24.94296875 71.801875 24.4015625 72.94140625 23.84375 C76.29909195 22.61173096 78.4111268 22.41439313 81.96484375 22.734375 C84.44067383 24.1394043 84.44067383 24.1394043 86.921875 26.12109375 C91.20670123 29.41382738 95.53367929 32.52669885 100.0390625 35.50390625 C100.65333603 35.91165787 101.26760956 36.31940948 101.90049744 36.73951721 C103.16838998 37.58044848 104.43688668 38.42046951 105.70596313 39.25961304 C109.01209505 41.44616269 112.31265926 43.64108276 115.61328125 45.8359375 C116.2545546 46.26220932 116.89582794 46.68848114 117.55653381 47.12767029 C122.65633497 50.52101109 127.73135968 53.94889892 132.77734375 57.421875 C133.41567139 57.86055908 134.05399902 58.29924316 134.71166992 58.7512207 C138.82660369 61.59613494 138.82660369 61.59613494 139.96484375 62.734375 C140.46434063 70.81080508 139.72030352 78.97554745 139.16015625 87.03125 C139.07611542 88.26425842 138.99207458 89.49726685 138.90548706 90.76763916 C138.72757016 93.35613628 138.54761857 95.94449429 138.36572266 98.53271484 C138.08972084 102.48613549 137.82585715 106.44025063 137.5625 110.39453125 C137.38745919 112.91932228 137.21170267 115.44406381 137.03515625 117.96875 C136.9579837 119.14491882 136.88081116 120.32108765 136.80130005 121.53289795 C135.94284392 133.40202472 135.94284392 133.40202472 133.96484375 137.734375 C131.09155273 139.79833984 131.09155273 139.79833984 127.4609375 141.4453125 C126.82245377 141.74378082 126.18397003 142.04224915 125.52613831 142.34976196 C123.49482353 143.29335746 121.44994202 144.20173885 119.40234375 145.109375 C117.35536602 146.04608276 115.31161076 146.98958386 113.26783752 147.93325806 C111.41970431 148.78184999 109.56436697 149.61469918 107.70874023 150.44677734 C105.10867189 151.47729891 105.10867189 151.47729891 103.96484375 152.734375 C104.25874601 154.75905633 104.63402802 156.77193604 105.0390625 158.77734375 C105.29260498 160.06286133 105.54614746 161.34837891 105.80737305 162.67285156 C105.94525238 163.36382935 106.08313171 164.05480713 106.22518921 164.76672363 C114.54226408 206.72941762 118.61000816 249.93846906 117.96484375 292.734375 C118.63257813 292.96382813 119.3003125 293.19328125 119.98828125 293.4296875 C123.81043178 295.10501332 127.11942251 297.30674488 130.58984375 299.609375 C132.11790028 300.61027525 133.64656835 301.61024238 135.17578125 302.609375 C135.9656543 303.12628906 136.75552734 303.64320313 137.56933594 304.17578125 C141.42981859 306.68753433 145.32036709 309.15077778 149.21484375 311.609375 C149.99134277 312.10195801 150.7678418 312.59454102 151.56787109 313.10205078 C155.87618829 315.8253566 160.21199121 318.49134289 164.58984375 321.1015625 C165.9970166 321.94871826 165.9970166 321.94871826 167.43261719 322.81298828 C169.23099722 323.89334189 171.03596842 324.96283159 172.84863281 326.01904297 C179.62954275 330.10951396 185.33587129 334.76818119 188.40234375 342.234375 C189.8791988 351.42369528 188.49805262 358.84890075 184.21484375 367.109375 C179.70608574 372.36959268 174.32443149 374.37624141 167.4921875 374.9375 C154.0342192 375.18108314 144.4670539 370.80852619 133.58984375 363.296875 C132.44378281 362.52379536 131.29665024 361.75230194 130.1484375 360.98242188 C128.03946838 359.56490715 125.9389219 358.13732477 123.84228516 356.70141602 C120.8981169 354.68876002 117.93553252 352.70758412 114.96484375 350.734375 C114.69438232 351.92015137 114.69438232 351.92015137 114.41845703 353.12988281 C105.12323279 393.67453767 92.60982167 436.14176429 66.96484375 469.734375 C66.25972656 470.66121094 65.55460937 471.58804687 64.828125 472.54296875 C47.13801221 494.93350648 20.96953494 516.28083187 -8.03515625 520.734375 C-36.17921052 522.96763623 -62.43552802 516.22635754 -84.67333984 498.42285156 C-87.91717852 495.6542513 -90.96585451 492.69243351 -94.03515625 489.734375 C-95.34192839 488.64413928 -96.65406243 487.56028284 -97.97265625 486.484375 C-165.04213872 427.73041779 -182.25614065 320.24594963 -190.65625 229.48828125 C-195.04759746 162.3101142 -181.68407867 75.44000915 -138.03515625 21.734375 C-137.57737793 21.16444824 -137.11959961 20.59452148 -136.64794922 20.00732422 C-130.1221507 11.92807584 -123.4251437 4.94595325 -115.03515625 -1.265625 C-114.24882813 -1.87792969 -113.4625 -2.49023438 -112.65234375 -3.12109375 C-79.6245519 -27.81018568 -32.34138034 -24.14157091 0 0 Z M-87.03515625 38.734375 C-87.66808594 39.20488281 -88.30101563 39.67539063 -88.953125 40.16015625 C-99.52225376 48.35909138 -105.87416856 61.14950681 -112.03515625 72.734375 C-112.59976563 73.78109375 -113.164375 74.8278125 -113.74609375 75.90625 C-115.53574954 79.25555911 -115.53574954 79.25555911 -117.03515625 82.734375 C-116.70515625 83.394375 -116.37515625 84.054375 -116.03515625 84.734375 C-114.81892578 84.68216797 -114.81892578 84.68216797 -113.578125 84.62890625 C-112.47082031 84.60183594 -111.36351563 84.57476562 -110.22265625 84.546875 C-109.14371094 84.51207031 -108.06476563 84.47726563 -106.953125 84.44140625 C-97.28512622 85.16433736 -90.03315971 88.45911761 -82.21875 94.01953125 C-80.37809257 95.28756682 -78.5367625 96.55462647 -76.69482422 97.82080078 C-75.7596698 98.47026672 -74.82451538 99.11973267 -73.86102295 99.78887939 C-69.33345196 102.90592998 -64.7328939 105.90943654 -60.1328125 108.91796875 C-58.31019319 110.11547107 -56.48784774 111.31339031 -54.66577148 112.51171875 C-53.75592499 113.10968262 -52.84607849 113.70764648 -51.90866089 114.32373047 C-25.41500458 131.74245164 -25.41500458 131.74245164 -13.64038086 139.83789062 C-3.68909928 146.67811709 6.32771394 153.42115824 16.33984375 160.171875 C17.28035583 160.80612396 18.22086792 161.44037292 19.18988037 162.09384155 C33.41755712 171.68689617 47.66419556 181.25035226 61.96484375 190.734375 C63.92262504 185.1151904 61.51301433 179.46555015 60.08984375 173.921875 C59.826875 172.75849609 59.56390625 171.59511719 59.29296875 170.39648438 C59.00164062 169.26404297 58.7103125 168.13160156 58.41015625 166.96484375 C58.15766113 165.93770264 57.90516602 164.91056152 57.64501953 163.85229492 C55.11996991 159.1665337 51.27384946 156.73788519 46.96484375 153.734375 C46.23307922 153.21567337 45.5013147 152.69697174 44.74737549 152.16255188 C42.53351814 150.61339061 40.30206534 149.09376058 38.0625 147.58203125 C37.25872421 147.03703476 36.45494843 146.49203827 35.6268158 145.93052673 C33.94816886 144.79380913 32.2684355 143.65869433 30.58764648 142.52514648 C28.00567914 140.78225082 25.42948848 139.03103654 22.85351562 137.27929688 C21.21518461 136.17137079 19.57652475 135.06393079 17.9375 133.95703125 C16.78133934 133.1697036 16.78133934 133.1697036 15.6018219 132.36647034 C14.89025436 131.88854538 14.17868683 131.41062042 13.44555664 130.91821289 C12.81984268 130.49520401 12.19412872 130.07219513 11.54945374 129.6363678 C9.97904476 128.56947774 9.97904476 128.56947774 7.96484375 128.734375 C8.04001221 127.7174633 8.04001221 127.7174633 8.11669922 126.68000793 C8.63793304 119.62366468 9.15661978 112.56713748 9.67382812 105.51049805 C9.86718481 102.87698643 10.06119081 100.24352239 10.25585938 97.61010742 C10.53556316 93.8248304 10.81293118 90.03938836 11.08984375 86.25390625 C11.22108643 84.4880291 11.22108643 84.4880291 11.35498047 82.68647766 C11.47510498 81.03533211 11.47510498 81.03533211 11.59765625 79.35083008 C11.66871582 78.38486404 11.73977539 77.41889801 11.81298828 76.42366028 C11.88815674 75.09246407 11.88815674 75.09246407 11.96484375 73.734375 C12.01479492 72.85428268 12.06474609 71.97419037 12.11621094 71.06742859 C11.8767123 67.37598687 9.47316303 65.23402807 7.08984375 62.609375 C6.33936768 61.7589563 6.33936768 61.7589563 5.57373047 60.89135742 C4.54135808 59.72517105 3.50372485 58.56362113 2.4609375 57.40673828 C1.10440663 55.89038115 -0.21752362 54.34324589 -1.53515625 52.79296875 C-14.42823992 37.88534076 -30.61743467 27.34045646 -50.62890625 25.3828125 C-65.12902979 24.81359277 -75.97892891 29.66863049 -87.03515625 38.734375 Z M-135.03515625 84.734375 C-134.03515625 87.734375 -134.03515625 87.734375 -134.03515625 87.734375 Z M-136.03515625 87.734375 C-136.70820643 89.33587386 -137.37337852 90.94068529 -138.03515625 92.546875 C-138.40640625 93.44019531 -138.77765625 94.33351563 -139.16015625 95.25390625 C-140.20148862 97.7675183 -140.20148862 97.7675183 -140.03515625 100.734375 C-139.04515625 100.404375 -138.05515625 100.074375 -137.03515625 99.734375 C-136.19208228 98.00267164 -136.19208228 98.00267164 -135.78515625 95.921875 C-135.615 95.23480469 -135.44484375 94.54773438 -135.26953125 93.83984375 C-135.01344959 91.53937679 -135.34500258 89.92807773 -136.03515625 87.734375 Z M-113.16796875 138.3671875 C-114.13089844 139.20636719 -114.13089844 139.20636719 -115.11328125 140.0625 C-115.78875 140.65546875 -116.46421875 141.2484375 -117.16015625 141.859375 C-118.47509723 143.00799934 -119.79020074 144.15643765 -121.10546875 145.3046875 C-121.69086426 145.81789551 -122.27625977 146.33110352 -122.87939453 146.85986328 C-125.03515625 148.734375 -125.03515625 148.734375 -126.81402588 149.94018555 C-129.59448904 151.96025336 -131.67913096 153.49642799 -132.65237427 156.88052368 C-132.86174419 159.4582359 -132.84897701 161.9467532 -132.75390625 164.53125 C-132.74637329 165.47889221 -132.73884033 166.42653442 -132.7310791 167.40289307 C-132.69865506 170.43155929 -132.61728583 173.45669223 -132.53515625 176.484375 C-132.50858154 178.47261679 -132.48511601 180.46090271 -132.46484375 182.44921875 C-132.33832702 192.27553757 -131.99501379 202.08377477 -131.37109375 211.89129639 C-130.99326385 217.8442681 -130.929938 223.77200778 -131.03515625 229.734375 C-132.35515625 229.734375 -133.67515625 229.734375 -135.03515625 229.734375 C-137.35280382 223.48434854 -138.76034312 217.46470901 -139.59765625 210.859375 C-139.72060059 209.93189453 -139.84354492 209.00441406 -139.97021484 208.04882812 C-141.11412576 198.97529684 -141.7904981 189.87037956 -142.38891602 180.74658203 C-142.49610962 179.1163208 -142.49610962 179.1163208 -142.60546875 177.453125 C-142.66492676 176.49341797 -142.72438477 175.53371094 -142.78564453 174.54492188 C-143.04957387 171.57197217 -143.50930071 168.67135144 -144.03515625 165.734375 C-147.04457838 167.1342635 -149.62175368 168.73274407 -152.22265625 170.796875 C-152.91746094 171.32410156 -153.61226562 171.85132813 -154.328125 172.39453125 C-158.59570264 178.24413995 -157.19576592 188.57595833 -157.203125 195.58203125 C-157.2064534 196.71096298 -157.2097818 197.83989471 -157.21321106 199.0030365 C-157.21825622 201.39077348 -157.22062013 203.77851746 -157.22045898 206.16625977 C-157.22261821 209.73401319 -157.24072406 213.3014429 -157.25976562 216.86914062 C-157.31004784 236.92156472 -156.08382049 256.71864859 -153.03515625 276.546875 C-152.87015625 277.70123047 -152.70515625 278.85558594 -152.53515625 280.04492188 C-152.37015625 281.14513672 -152.20515625 282.24535156 -152.03515625 283.37890625 C-151.89078125 284.34159424 -151.74640625 285.30428223 -151.59765625 286.29614258 C-151.13140651 288.97291693 -151.13140651 288.97291693 -149.03515625 291.734375 C-142.63535198 284.17715932 -136.47524676 276.4827459 -130.47021484 268.60791016 C-127.69855005 264.98937398 -124.89701646 261.39399994 -122.09765625 257.796875 C-121.19708496 256.63937744 -121.19708496 256.63937744 -120.27832031 255.45849609 C-116.27103907 250.31201755 -112.24677702 245.17920441 -108.21240234 240.05395508 C-102.11914291 232.30744286 -96.08125311 224.51770617 -90.03515625 216.734375 C-87.639758 213.65070329 -85.2439751 210.56733137 -82.84765625 207.484375 C-82.26628906 206.73623535 -81.68492188 205.9880957 -81.0859375 205.21728516 C-77.93815911 201.16976086 -74.77841939 197.13221155 -71.60131836 193.10766602 C-69.83485648 190.86760341 -68.07628017 188.6214487 -66.31982422 186.37353516 C-65.44194991 185.25341959 -64.56060005 184.13602153 -63.67626953 183.02099609 C-62.36929927 181.37045785 -61.07592208 179.71009936 -59.78515625 178.046875 C-59.0375 177.09425781 -58.28984375 176.14164063 -57.51953125 175.16015625 C-57.0296875 174.35964844 -56.53984375 173.55914062 -56.03515625 172.734375 C-57.18813908 169.2754265 -57.76553458 168.99241229 -60.76171875 167.16796875 C-61.53845947 166.68779297 -62.3152002 166.20761719 -63.11547852 165.71289062 C-63.95522217 165.20435547 -64.79496582 164.69582031 -65.66015625 164.171875 C-67.41238826 163.08874252 -69.16368083 162.00408891 -70.9140625 160.91796875 C-71.78562988 160.37897949 -72.65719727 159.83999023 -73.55517578 159.28466797 C-76.94632047 157.16478524 -80.27914747 154.96573884 -83.59765625 152.734375 C-84.18192383 152.34258057 -84.76619141 151.95078613 -85.36816406 151.54711914 C-87.25830648 150.27789925 -89.14672884 149.00614502 -91.03515625 147.734375 C-94.32450122 145.52256242 -97.61676515 143.31515694 -100.91015625 141.109375 C-101.70236572 140.57570312 -102.4945752 140.04203125 -103.31079102 139.4921875 C-104.04225342 139.00234375 -104.77371582 138.5125 -105.52734375 138.0078125 C-106.1807373 137.56872559 -106.83413086 137.12963867 -107.50732422 136.67724609 C-110.2582721 134.97955342 -110.89055456 136.37389516 -113.16796875 138.3671875 Z M40.96484375 247.734375 C38.98609011 250.04138699 37.0591888 252.36875651 35.15234375 254.734375 C34.56775391 255.45625 33.98316406 256.178125 33.38085938 256.921875 C28.95097414 262.4269751 24.69627088 268.04615633 20.49145508 273.72387695 C16.37342074 279.25716879 12.05728272 284.60821822 7.68408203 289.94091797 C3.49796586 295.05253174 -0.55197468 300.25092847 -4.55859375 305.50390625 C-7.26428304 309.0470708 -10.02384139 312.54699834 -12.78515625 316.046875 C-16.60558515 320.89242682 -20.36432359 325.77379032 -24.03515625 330.734375 C-22.58327031 334.08480897 -20.75319035 336.23923696 -18.1484375 338.78125 C-16.98731445 339.9259375 -16.98731445 339.9259375 -15.80273438 341.09375 C-14.99255859 341.88265625 -14.18238281 342.6715625 -13.34765625 343.484375 C-8.22649883 348.49284191 -3.21936829 353.50428268 1.41918945 358.96777344 C3.02864612 360.80729775 4.71970583 362.52378666 6.46484375 364.234375 C10.74102508 368.45404292 14.62399129 372.97538102 18.50927734 377.5546875 C19.66847415 378.92054237 20.82999083 380.28443128 21.99365234 381.64648438 C23.17472171 383.02897893 24.35091202 384.41565788 25.52197266 385.80664062 C26.06644043 386.44279297 26.6109082 387.07894531 27.171875 387.734375 C27.66147705 388.311875 28.1510791 388.889375 28.65551758 389.484375 C29.90424441 390.96455176 29.90424441 390.96455176 31.96484375 390.734375 C33.55208292 387.27782159 35.13389543 383.81880967 36.71484375 380.359375 C37.38 378.91111328 37.38 378.91111328 38.05859375 377.43359375 C40.58836022 371.89042898 42.9364027 366.35269025 44.98144531 360.61083984 C45.96484375 358.734375 45.96484375 358.734375 48.96484375 357.734375 C49.32475429 363.87796429 48.02984873 368.99312309 46.27734375 374.859375 C46.00913818 375.78355225 45.74093262 376.70772949 45.46459961 377.65991211 C43.58047398 384.02571198 41.39573322 390.14581301 38.75 396.23828125 C37.88302835 398.9944747 37.89206752 400.09114285 38.96484375 402.734375 C39.64546875 403.8275 40.32609375 404.920625 41.02734375 406.046875 C45.12977603 413.95446186 43.30595663 424.26246679 41.96484375 432.734375 C45.73305286 428.53910219 47.73657573 424.19805498 49.83984375 419.046875 C50.18644043 418.20527832 50.53303711 417.36368164 50.89013672 416.49658203 C62.31572291 388.34086133 70.34012695 356.84358458 71.27734375 326.359375 C71.31472656 325.54726563 71.35210937 324.73515625 71.390625 323.8984375 C71.18760889 321.56316779 71.18760889 321.56316779 69.04948425 320.35952759 C66.67181205 318.50593215 66.13677525 317.38727258 65.18481445 314.56787109 C64.89355179 313.72705994 64.60228912 312.88624878 64.30220032 312.0199585 C64.00138046 311.10845032 63.70056061 310.19694214 63.390625 309.2578125 C62.90223396 307.83205902 62.90223396 307.83205902 62.40397644 306.37750244 C61.34973744 303.29207338 60.31363351 300.20087331 59.27734375 297.109375 C58.56136678 295.00519553 57.84391787 292.90151634 57.125 290.79833984 C56.05688828 287.67282741 54.98973317 284.54702835 53.92764282 281.41946411 C51.19281357 273.36705076 48.36916616 265.35219689 45.46484375 257.359375 C45.09786377 256.34665527 44.73088379 255.33393555 44.3527832 254.29052734 C43.55922522 252.10424648 42.76362373 249.91875199 41.96484375 247.734375 C41.63484375 247.734375 41.30484375 247.734375 40.96484375 247.734375 Z M-107.03515625 340.734375 C-108.42907776 342.09956766 -108.42907776 342.09956766 -109.828125 343.91796875 C-110.3732373 344.59432373 -110.91834961 345.27067871 -111.47998047 345.9675293 C-112.05506348 346.69496338 -112.63014648 347.42239746 -113.22265625 348.171875 C-113.80547363 348.9038208 -114.38829102 349.6357666 -114.98876953 350.38989258 C-116.14639689 351.84490541 -117.30203821 353.30150085 -118.45556641 354.75976562 C-119.77087211 356.4039994 -121.12321153 358.01852317 -122.484375 359.625 C-123.43763672 360.76195312 -123.43763672 360.76195312 -124.41015625 361.921875 C-124.95414062 362.55480469 -125.498125 363.18773437 -126.05859375 363.83984375 C-127.22614418 365.71950904 -127.22614418 365.71950904 -126.93359375 368.02734375 C-125.76856983 371.53761148 -124.11493796 374.66282591 -122.28515625 377.859375 C-121.89392578 378.54805664 -121.50269531 379.23673828 -121.09960938 379.94628906 C-115.921048 388.87910796 -110.013392 397.32421617 -104.03515625 405.734375 C-103.61202148 406.3329834 -103.18888672 406.9315918 -102.75292969 407.54833984 C-97.09099273 415.50880453 -90.82283815 422.73234525 -84.03515625 429.734375 C-83.41511719 430.39179688 -82.79507813 431.04921875 -82.15625 431.7265625 C-74.1755934 439.47511946 -61.00502304 446.63054339 -49.9609375 448.16015625 C-45.94475223 447.57569137 -44.81355719 445.99400463 -42.22265625 442.921875 C-41.37316406 441.92542969 -40.52367187 440.92898438 -39.6484375 439.90234375 C-39.21869629 439.38075684 -38.78895508 438.85916992 -38.34619141 438.32177734 C-37.04774107 436.7496127 -35.72307815 435.20354401 -34.390625 433.66015625 C-29.70126699 428.82246579 -29.70126699 428.82246579 -28.03515625 422.734375 C-29.15242177 420.77090137 -29.15242177 420.77090137 -30.7109375 418.7421875 C-31.28626221 417.96101563 -31.86158691 417.17984375 -32.4543457 416.375 C-33.07913818 415.54484375 -33.70393066 414.7146875 -34.34765625 413.859375 C-34.98340576 413.00601563 -35.61915527 412.15265625 -36.27416992 411.2734375 C-40.82511912 405.21538909 -45.55812289 399.36197427 -50.52734375 393.64453125 C-52.91633486 390.87225964 -55.19775329 388.03792658 -57.47265625 385.171875 C-62.55851667 378.91305939 -68.26912116 373.3554539 -74.03515625 367.734375 C-76.52887675 365.26353267 -78.99259199 362.77946783 -81.40234375 360.2265625 C-86.61801095 354.78342072 -92.01301647 350.00913905 -98.09765625 345.546875 C-99.08064697 344.82443604 -99.08064697 344.82443604 -100.08349609 344.08740234 C-103.24445207 341.57835614 -103.24445207 341.57835614 -107.03515625 340.734375 Z M40.96484375 432.734375 C41.96484375 434.734375 41.96484375 434.734375 41.96484375 434.734375 Z M39.96484375 434.734375 C40.96484375 436.734375 40.96484375 436.734375 40.96484375 436.734375 Z M38.96484375 436.734375 C39.96484375 438.734375 39.96484375 438.734375 39.96484375 438.734375 Z M36.96484375 439.734375 C35.05575996 441.70970459 33.18964871 443.70461604 31.33984375 445.734375 C30.79223389 446.33161377 30.24462402 446.92885254 29.68041992 447.54418945 C26.2979678 451.2431049 22.9575458 454.9739937 19.68359375 458.76953125 C17.58569456 461.16781146 15.42868653 463.50896317 13.27734375 465.859375 C10.13871934 469.3300723 7.38591537 472.73434363 4.96484375 476.734375 C9.72214907 474.56050701 13.15179552 471.25567755 16.96484375 467.734375 C17.66867188 467.09628906 18.3725 466.45820313 19.09765625 465.80078125 C23.9306201 461.21899294 28.01244657 456.26124758 31.96484375 450.921875 C32.44606689 450.27541016 32.92729004 449.62894531 33.4230957 448.96289062 C33.86999756 448.34478516 34.31689941 447.72667969 34.77734375 447.08984375 C35.17566406 446.53965576 35.57398438 445.98946777 35.984375 445.42260742 C37.0705726 443.55232445 37.53647653 441.84540782 37.96484375 439.734375 C37.63484375 439.734375 37.30484375 439.734375 36.96484375 439.734375 Z " fill="#FEFEFE" transform="translate(197.03515625,25.265625)"/>
<path d="M0 0 C2.70801637 2.19025258 5.34544582 4.43928348 7.96484375 6.734375 C9.05925781 7.64703125 9.05925781 7.64703125 10.17578125 8.578125 C18.97049871 15.9912968 25.82718385 25.14751308 32.79492188 34.23632812 C33.77534389 35.49172659 34.80961587 36.7048157 35.85546875 37.90625 C36.96484375 39.734375 36.96484375 39.734375 36.82519531 41.68969727 C35.61320325 44.57007 34.12576196 45.00653318 31.30859375 46.27734375 C30.36886719 46.71111328 29.42914063 47.14488281 28.4609375 47.59179688 C27.47222656 48.03072266 26.48351562 48.46964844 25.46484375 48.921875 C23.51628024 49.80977975 21.56832921 50.69903027 19.62109375 51.58984375 C18.75291016 51.97809326 17.88472656 52.36634277 16.99023438 52.76635742 C15.01673806 53.57145886 15.01673806 53.57145886 13.96484375 54.734375 C13.56735075 57.08161466 13.22115652 59.43766048 12.90234375 61.796875 C12.72574219 63.08722656 12.54914063 64.37757812 12.3671875 65.70703125 C12.23441406 66.70605469 12.10164062 67.70507812 11.96484375 68.734375 C8.73716169 65.54633114 5.61523162 62.30222715 2.58984375 58.921875 C1.80351562 58.04917969 1.0171875 57.17648438 0.20703125 56.27734375 C-1.12846754 54.76269268 -2.44402499 53.22946965 -3.71484375 51.66015625 C-14.48904034 38.44702461 -30.15160996 29.28362333 -47.03515625 26.734375 C-62.94431707 25.17804405 -74.80453462 29.7686833 -87.03515625 39.734375 C-88.06640625 40.476875 -89.09765625 41.219375 -90.16015625 41.984375 C-99.24044523 50.66986881 -105.23520264 61.72940085 -111.03515625 72.734375 C-111.40060547 73.4267627 -111.76605469 74.11915039 -112.14257812 74.83251953 C-127.62520247 104.41095561 -131.6029584 135.37172786 -131.31640625 168.48193359 C-131.28500111 172.12738323 -131.27538524 175.77239642 -131.26953125 179.41796875 C-131.2307809 190.9928106 -131.03318659 202.52233059 -130.2512207 214.07226562 C-129.94305439 219.29542343 -129.9428657 224.50457733 -130.03515625 229.734375 C-132.01515625 230.724375 -132.01515625 230.724375 -134.03515625 231.734375 C-142.31997887 224.92240974 -141.38693058 204.62004412 -142.40625 194.71484375 C-143.32683849 185.07077479 -143.75127924 175.41555987 -144.03515625 165.734375 C-145.87114092 167.01381737 -147.67829883 168.3346787 -149.47265625 169.671875 C-150.48199219 170.40277344 -151.49132812 171.13367188 -152.53125 171.88671875 C-157.69280159 177.75687648 -156.19522917 188.06495357 -156.203125 195.58203125 C-156.2064534 196.71096298 -156.2097818 197.83989471 -156.21321106 199.0030365 C-156.21825622 201.39077348 -156.22062013 203.77851746 -156.22045898 206.16625977 C-156.22261821 209.73401319 -156.24072406 213.3014429 -156.25976562 216.86914062 C-156.31595758 238.77734942 -154.58397218 260.22055414 -151.22265625 281.859375 C-151.02366226 283.15332687 -151.02366226 283.15332687 -150.82064819 284.47341919 C-146.16491553 314.6037454 -139.40499832 346.0292744 -124.03515625 372.734375 C-123.43703125 373.85070312 -122.83890625 374.96703125 -122.22265625 376.1171875 C-116.5613445 386.47267024 -109.84575628 396.11055882 -103.03515625 405.734375 C-102.61057129 406.33588379 -102.18598633 406.93739258 -101.74853516 407.55712891 C-89.11849847 425.31132159 -73.09876726 442.36285596 -50.984375 447.375 C-38.14545682 448.93947745 -26.81187879 448.03555198 -15.22265625 442.109375 C-14.18334961 441.58150391 -14.18334961 441.58150391 -13.12304688 441.04296875 C9.93469818 429.03328133 23.52496074 408.38940105 33.75195312 385.13916016 C34.58985474 383.23435001 35.43664241 381.33369712 36.28515625 379.43359375 C39.05772105 373.19567765 41.72304645 366.97669183 43.92333984 360.50976562 C44.96484375 358.734375 44.96484375 358.734375 47.08056641 357.97460938 C48.01328369 357.85569336 48.01328369 357.85569336 48.96484375 357.734375 C50.43279141 364.07245488 49.23270848 368.71658754 47.33984375 374.859375 C47.06712646 375.78355225 46.79440918 376.70772949 46.51342773 377.65991211 C44.60182514 384.01361994 42.39400141 390.14980093 39.75 396.23828125 C38.88302835 398.9944747 38.89206752 400.09114285 39.96484375 402.734375 C40.98578125 404.3740625 40.98578125 404.3740625 42.02734375 406.046875 C45.74511792 413.18607902 44.75493202 423.12286148 42.96484375 430.734375 C60.87785285 397.35846443 67.80632617 359.16516541 70.96484375 321.734375 C75.19108675 323.23121048 78.77071337 325.4044479 82.48046875 327.875 C83.09573425 328.27966492 83.71099976 328.68432983 84.34490967 329.10125732 C86.30434996 330.39144802 88.25961615 331.68781138 90.21484375 332.984375 C91.51275314 333.84024983 92.81092795 334.69572231 94.109375 335.55078125 C100.74278644 339.9228312 107.36068314 344.31825952 113.96484375 348.734375 C111.1011119 387.80614928 93.32783315 434.1943393 69.96484375 465.734375 C69.56716797 466.27723145 69.16949219 466.82008789 68.75976562 467.37939453 C50.58411745 492.01364136 23.27717168 515.92650437 -8.03515625 520.734375 C-36.17921052 522.96763623 -62.43552802 516.22635754 -84.67333984 498.42285156 C-87.91717852 495.6542513 -90.96585451 492.69243351 -94.03515625 489.734375 C-95.34192839 488.64413928 -96.65406243 487.56028284 -97.97265625 486.484375 C-165.04213872 427.73041779 -182.25614065 320.24594963 -190.65625 229.48828125 C-195.04759746 162.3101142 -181.68407867 75.44000915 -138.03515625 21.734375 C-137.57737793 21.16444824 -137.11959961 20.59452148 -136.64794922 20.00732422 C-130.1221507 11.92807584 -123.4251437 4.94595325 -115.03515625 -1.265625 C-114.24882813 -1.87792969 -113.4625 -2.49023438 -112.65234375 -3.12109375 C-79.6245519 -27.81018568 -32.34138034 -24.14157091 0 0 Z M-135.03515625 84.734375 C-134.03515625 87.734375 -134.03515625 87.734375 -134.03515625 87.734375 Z M-136.03515625 87.734375 C-136.70820643 89.33587386 -137.37337852 90.94068529 -138.03515625 92.546875 C-138.40640625 93.44019531 -138.77765625 94.33351563 -139.16015625 95.25390625 C-140.20148862 97.7675183 -140.20148862 97.7675183 -140.03515625 100.734375 C-139.04515625 100.404375 -138.05515625 100.074375 -137.03515625 99.734375 C-136.19208228 98.00267164 -136.19208228 98.00267164 -135.78515625 95.921875 C-135.615 95.23480469 -135.44484375 94.54773438 -135.26953125 93.83984375 C-135.01344959 91.53937679 -135.34500258 89.92807773 -136.03515625 87.734375 Z M40.96484375 432.734375 C41.96484375 434.734375 41.96484375 434.734375 41.96484375 434.734375 Z M39.96484375 434.734375 C40.96484375 436.734375 40.96484375 436.734375 40.96484375 436.734375 Z M38.96484375 436.734375 C39.96484375 438.734375 39.96484375 438.734375 39.96484375 438.734375 Z M36.96484375 439.734375 C35.05575996 441.70970459 33.18964871 443.70461604 31.33984375 445.734375 C30.79223389 446.33161377 30.24462402 446.92885254 29.68041992 447.54418945 C26.2979678 451.2431049 22.9575458 454.9739937 19.68359375 458.76953125 C17.58569456 461.16781146 15.42868653 463.50896317 13.27734375 465.859375 C10.13871934 469.3300723 7.38591537 472.73434363 4.96484375 476.734375 C9.72214907 474.56050701 13.15179552 471.25567755 16.96484375 467.734375 C17.66867188 467.09628906 18.3725 466.45820313 19.09765625 465.80078125 C23.9306201 461.21899294 28.01244657 456.26124758 31.96484375 450.921875 C32.44606689 450.27541016 32.92729004 449.62894531 33.4230957 448.96289062 C33.86999756 448.34478516 34.31689941 447.72667969 34.77734375 447.08984375 C35.17566406 446.53965576 35.57398438 445.98946777 35.984375 445.42260742 C37.0705726 443.55232445 37.53647653 441.84540782 37.96484375 439.734375 C37.63484375 439.734375 37.30484375 439.734375 36.96484375 439.734375 Z " fill="#EC6726" transform="translate(197.03515625,25.265625)"/>
<path d="M0 0 C6.02501297 0 11.42990323 0.019449 17.3203125 0.65625 C18.59648438 0.79160156 19.87265625 0.92695312 21.1875 1.06640625 C22.486875 1.20949219 23.78625 1.35257813 25.125 1.5 C26.47651087 1.64501329 27.82807319 1.78954786 29.1796875 1.93359375 C32.4536308 2.28437339 35.72688907 2.64153674 39 3 C36.6997193 16.80168419 33.28310471 30.39856621 30 44 C64.65 44 99.3 44 135 44 C135 56.54 135 69.08 135 82 C97.05 82 59.1 82 20 82 C18.68 87.61 17.36 93.22 16 99 C14.68 103.29 13.36 107.58 12 112 C57.54 112 103.08 112 150 112 C150 124.54 150 137.08 150 150 C100.17 150.33 50.34 150.66 -1 151 C-5.29 162.22 -9.58 173.44 -14 185 C33.52 185 81.04 185 130 185 C130 223.92132353 130 223.92132353 121.2421875 233.8125 C120.1626674 234.87622841 119.08201321 235.93880765 118 237 C116.39106437 238.85002996 114.78629196 240.70369689 113.1875 242.5625 C111.7935375 244.04342986 110.39789043 245.52277724 109 247 C107.91132498 248.26626031 106.82784386 249.53700751 105.75 250.8125 C97.30638483 260.46793031 88.04343998 269.03839351 78 277 C75.76081888 278.84222932 73.53601148 280.70140675 71.3125 282.5625 C70.28779236 283.41800702 69.26305576 284.27347934 68.23828125 285.12890625 C67.49964844 285.74636719 66.76101563 286.36382812 66 287 C66.64324219 287.3717334 67.28648437 287.7434668 67.94921875 288.12646484 C89.50590603 300.59997594 89.50590603 300.59997594 99.5 306.6875 C100.16902344 307.08437012 100.83804688 307.48124023 101.52734375 307.89013672 C103.34375 309.01171875 103.34375 309.01171875 106 311 C106 314.37519785 105.43711844 315.25283455 103.65625 318.02734375 C103.15528809 318.81447754 102.65432617 319.60161133 102.13818359 320.41259766 C101.59758301 321.24581543 101.05698242 322.0790332 100.5 322.9375 C99.68329834 324.21052979 99.68329834 324.21052979 98.85009766 325.50927734 C97.24091134 328.0111371 95.6216185 330.50618606 94 333 C93.56397461 333.67595215 93.12794922 334.3519043 92.67871094 335.04833984 C86.37757353 344.81121324 86.37757353 344.81121324 84 346 C82.37792969 345.21826172 82.37792969 345.21826172 80.421875 343.9296875 C79.68493408 343.45217041 78.94799316 342.97465332 78.1887207 342.48266602 C76.98155396 341.68687134 76.98155396 341.68687134 75.75 340.875 C74.01075495 339.75396136 72.26980309 338.63556728 70.52734375 337.51953125 C69.61710449 336.9363916 68.70686523 336.35325195 67.76904297 335.75244141 C51.95604445 325.74488512 35.55790975 316.70445182 19 308 C17.58243408 307.25218262 17.58243408 307.25218262 16.13623047 306.48925781 C3.6664013 299.95610953 -9.04643355 294.11999074 -22 288.625 C-22.68061493 288.33585724 -23.36122986 288.04671448 -24.06246948 287.74880981 C-33.94515515 283.56505732 -43.92747651 279.7018533 -54 276 C-54 271.94732844 -52.027008 269.61428193 -49.84375 266.36328125 C-49.42202515 265.72384079 -49.00030029 265.08440033 -48.5657959 264.42558289 C-47.21692227 262.38357274 -45.85862224 260.34803381 -44.5 258.3125 C-43.58400773 256.92945197 -42.66863529 255.54599321 -41.75390625 254.16210938 C-39.50976964 250.76993113 -37.25715845 247.38352602 -35 244 C-30.37938932 244.61256598 -26.40649832 245.84871516 -22.07421875 247.5546875 C-21.41732559 247.81242447 -20.76043243 248.07016144 -20.08363342 248.33570862 C-17.94911052 249.17600867 -15.81835338 250.0254431 -13.6875 250.875 C-12.21066677 251.45725162 -10.73377824 252.039363 -9.25683594 252.62133789 C-2.25153367 255.39779992 4.70065684 258.25454655 11.55859375 261.37890625 C13.26438599 262.15355225 13.26438599 262.15355225 15.00463867 262.94384766 C17.12592349 263.92015252 19.23982819 264.91269874 21.3449707 265.92333984 C22.28816162 266.35984863 23.23135254 266.79635742 24.203125 267.24609375 C25.01426758 267.63466553 25.82541016 268.0232373 26.66113281 268.42358398 C29.79472396 269.19586047 31.17316757 268.47893139 34 267 C35.41652184 266.10397836 36.80117246 265.15589164 38.15234375 264.1640625 C38.92175293 263.60058105 39.69116211 263.03709961 40.48388672 262.45654297 C41.2935791 261.85213379 42.10327148 261.24772461 42.9375 260.625 C43.78070801 259.99867676 44.62391602 259.37235352 45.49267578 258.72705078 C52.95242596 253.13259196 60.06773208 247.2316881 67 241 C67.58040039 240.48131348 68.16080078 239.96262695 68.75878906 239.42822266 C70.51286441 237.85552043 72.25844547 236.27404968 74 234.6875 C74.5161084 234.22005371 75.0322168 233.75260742 75.56396484 233.27099609 C79.42210982 229.70702053 82.52282887 226.05669965 86 222 C10.76 221.505 10.76 221.505 -66 221 C-62.63374932 210.90124797 -62.63374932 210.90124797 -60.72265625 205.9375 C-60.29702393 204.82592529 -59.8713916 203.71435059 -59.43286133 202.5690918 C-58.98064209 201.3912915 -58.52842285 200.21349121 -58.0625 199 C-51.84409562 182.73703761 -45.92229124 166.37339342 -40 150 C-58.48 150 -76.96 150 -96 150 C-96 137.46 -96 124.92 -96 112 C-73.56 111.67 -51.12 111.34 -28 111 C-24.04 97.14 -24.04 97.14 -20 83 C-49.7 82.505 -49.7 82.505 -80 82 C-80 69.46 -80 56.92 -80 44 C-45.35 43.505 -45.35 43.505 -10 43 C-6.7 28.81 -3.4 14.62 0 0 Z " fill="#FFFFFF" transform="translate(627,32)"/>
<path d="M0 0 C15.07045624 11.9077562 24.35597669 27.77481046 26.96484375 46.81640625 C29.98695623 83.82702811 12.41037922 114.39865142 -10.78515625 141.81640625 C-15.4422609 147.23203234 -20.22862893 152.5335564 -25.03515625 157.81640625 C-26.47320532 159.42008072 -27.91069522 161.02425677 -29.34765625 162.62890625 C-32.83994572 166.50990273 -36.36641144 170.35749714 -39.91015625 174.19140625 C-40.41329346 174.73579346 -40.91643066 175.28018066 -41.43481445 175.84106445 C-43.48258219 178.05613027 -45.53058203 180.27098099 -47.57910156 182.48535156 C-49.06613347 184.09416215 -50.55088871 185.70504547 -52.03515625 187.31640625 C-52.90140625 188.25484375 -53.76765625 189.19328125 -54.66015625 190.16015625 C-56.87370171 192.63583209 -58.96057096 195.22317464 -61.03515625 197.81640625 C-28.36515625 197.81640625 4.30484375 197.81640625 37.96484375 197.81640625 C37.96484375 214.31640625 37.96484375 230.81640625 37.96484375 247.81640625 C-18.79515625 247.81640625 -75.55515625 247.81640625 -134.03515625 247.81640625 C-137.99515625 238.24640625 -141.95515625 228.67640625 -146.03515625 218.81640625 C-144.22842437 215.2029425 -142.66691346 213.10899695 -139.97265625 210.19140625 C-139.16441406 209.3096875 -138.35617187 208.42796875 -137.5234375 207.51953125 C-136.70230469 206.6275 -135.88117188 205.73546875 -135.03515625 204.81640625 C-133.57480505 203.19321942 -132.11643877 201.56824439 -130.66015625 199.94140625 C-127.26738434 196.1690235 -123.84476749 192.42559517 -120.41015625 188.69140625 C-117.41335614 185.43250131 -114.43601078 182.16141076 -111.53515625 178.81640625 C-108.17192987 174.93823612 -104.70179954 171.16112814 -101.22705078 167.38330078 C-96.79292898 162.56056714 -92.40907214 157.69379447 -88.03515625 152.81640625 C-83.74966053 148.03761606 -79.45827712 143.26711836 -75.09814453 138.55615234 C-42.00320038 104.67599661 -42.00320038 104.67599661 -27.82421875 61.6953125 C-28.3856568 54.03272284 -31.19695335 47.87706068 -37.03515625 42.81640625 C-45.17392912 37.4242586 -54.90373889 35.45858438 -64.4765625 37.28125 C-80.3774334 41.48664465 -89.96100153 52.3671829 -98.04394531 66.05029297 C-100.35282255 70.16418902 -102.26164581 74.44947099 -104.03515625 78.81640625 C-107.23922202 78.15804909 -109.7764575 77.01322365 -112.640625 75.4453125 C-113.53442871 74.95772461 -114.42823242 74.47013672 -115.34912109 73.96777344 C-116.771521 73.18128418 -116.771521 73.18128418 -118.22265625 72.37890625 C-119.19412598 71.84555664 -120.1655957 71.31220703 -121.16650391 70.76269531 C-129.88989597 65.94890274 -138.49011275 60.93889917 -147.03515625 55.81640625 C-141.15757321 31.52239637 -124.00415603 10.06513885 -102.93359375 -2.9609375 C-71.35036353 -21.48433428 -30.20528932 -21.73070364 0 0 Z " fill="#FFFFFF" transform="translate(1797.03515625,88.18359375)"/>
<path d="M0 0 C25.9701529 8.51912462 25.9701529 8.51912462 37 13 C36.43304462 19.12311814 33.90475887 24.32344019 31.4375 29.875 C30.99003418 30.89279541 30.54256836 31.91059082 30.08154297 32.95922852 C26.3171708 41.44745314 22.25137478 49.74787734 18 58 C16.68 60.64 15.36 63.28 14 66 C26.54 66 39.08 66 52 66 C52 77.88 52 89.76 52 102 C27.25 102 2.5 102 -23 102 C-23 109.59 -23 117.18 -23 125 C-23.66 131.6 -24.32 138.2 -25 145 C4.7 145 34.4 145 65 145 C65 157.21 65 169.42 65 182 C16.985 182.495 16.985 182.495 -32 183 C-34.97 191.415 -34.97 191.415 -38 200 C-39.51816358 203.33751122 -41.00130055 206.49250231 -42.75 209.6875 C-43.17482666 210.47584229 -43.59965332 211.26418457 -44.03735352 212.07641602 C-50.46264717 223.74510895 -58.2875498 233.93718777 -67.54052734 243.48925781 C-69.03791815 245.03925017 -70.51261918 246.60902163 -71.98828125 248.1796875 C-87.39378927 264.32572821 -107.61835839 279.62557092 -128 289 C-131.94998127 287.68333958 -132.89316477 285.8311011 -135.375 282.5 C-136.25481217 281.32652579 -137.13504331 280.15336562 -138.015625 278.98046875 C-138.7262207 278.02793213 -138.7262207 278.02793213 -139.45117188 277.05615234 C-141.12868879 274.82915873 -142.83460281 272.62615261 -144.546875 270.42578125 C-145.14064941 269.66007812 -145.73442383 268.894375 -146.34619141 268.10546875 C-147.52268324 266.58891491 -148.70200342 265.07455058 -149.88427734 263.5625 C-150.42004395 262.86769531 -150.95581055 262.17289062 -151.5078125 261.45703125 C-151.98879395 260.83803955 -152.46977539 260.21904785 -152.96533203 259.58129883 C-154 258 -154 258 -154 256 C-153.44763672 255.72438232 -152.89527344 255.44876465 -152.32617188 255.16479492 C-117.55208554 237.69492201 -93.47235592 217.09747625 -75 182 C-100.08 182 -125.16 182 -151 182 C-151 169.79 -151 157.58 -151 145 C-122.62 145 -94.24 145 -65 145 C-63.75529054 130.68584118 -62.7175124 116.3502481 -62 102 C-87.08 102 -112.16 102 -138 102 C-138 90.12 -138 78.24 -138 66 C-125.13 65.67 -112.26 65.34 -99 65 C-106.61986688 50.67465026 -114.58156448 36.65089447 -124.671875 23.88476562 C-126 22 -126 22 -126 20 C-121.38094771 17.68781223 -116.75453837 15.39135005 -112.12060547 13.10913086 C-110.54524042 12.33053386 -108.97197288 11.54767785 -107.40087891 10.76049805 C-105.14242605 9.62984493 -102.87687716 8.51471427 -100.609375 7.40234375 C-99.90818542 7.047202 -99.20699585 6.69206024 -98.48455811 6.32615662 C-93.53516964 3.92478918 -93.53516964 3.92478918 -90.87908936 4.29806519 C-88.15339106 5.31625121 -87.44763024 6.88165672 -85.96875 9.35546875 C-85.41098877 10.27779297 -84.85322754 11.20011719 -84.27856445 12.15039062 C-83.39817505 13.65375977 -83.39817505 13.65375977 -82.5 15.1875 C-81.88922607 16.21166016 -81.27845215 17.23582031 -80.64916992 18.29101562 C-73.20444579 30.87126088 -65.76255489 43.5540386 -60 57 C-67.425 60.96 -67.425 60.96 -75 65 C-59.16 65.33 -43.32 65.66 -27 66 C-26.34 64.02 -25.68 62.04 -25 60 C-24.37851296 58.62176109 -23.7260414 57.25694823 -23.0390625 55.91015625 C-15.27832165 40.33812129 -9.10629512 24.27114755 -3 8 C-2.66597168 7.11135254 -2.33194336 6.22270508 -1.98779297 5.30712891 C-1.32377667 3.53861794 -0.66157266 1.76942654 0 0 Z " fill="#FFFFFF" transform="translate(1106,29)"/>
<path d="M0 0 C28.05 0 56.1 0 85 0 C84.87496094 9.98121094 84.74992188 19.96242187 84.62109375 30.24609375 C84.57980315 36.59454227 84.5428644 42.94253062 84.52539062 49.29101562 C84.49689331 59.35375708 84.45136928 69.41422041 84.2902832 79.47583008 C84.1729991 86.80664569 84.11687562 94.13506814 84.13146263 101.46684891 C84.13711067 105.34338204 84.11400672 109.21451904 84.01739311 113.08996391 C83.17673224 132.43199151 83.17673224 132.43199151 91.85302067 149.02053165 C95.36560126 152.34319704 99.03307195 155.24253377 103 158 C104.34189686 158.98449324 105.68354345 159.96932773 107.02488708 160.95457458 C126.53923184 175.05956059 151.93608021 175.07846726 175.07421875 175.3515625 C176.85742411 175.37523939 178.64062719 175.39908798 180.42382812 175.4230957 C185.19139778 175.48533003 189.95902187 175.54034988 194.72671127 175.59253693 C197.69604364 175.62509368 200.66535806 175.65904234 203.63467407 175.6930542 C229.32448194 175.98123344 254.99937782 176.06716366 280.6875 175.625 C281.9394516 175.60367004 283.1914032 175.58234009 284.48129272 175.56036377 C302.32823679 175.24119471 320.16279692 174.65736934 338 174 C336.57533514 182.68372495 334.54894244 191.16405496 332.375 199.6875 C332.04654101 200.9862437 331.71841402 202.28507142 331.390625 203.58398438 C330.59699434 206.72349389 329.80005781 209.86212339 329 213 C312.18485943 213.02364359 295.36972446 213.04113021 278.55457115 213.05181217 C270.74226692 213.05690976 262.92997329 213.06385426 255.11767578 213.07543945 C194.861966 213.16282389 194.861966 213.16282389 172.59375 212.578125 C171.86548382 212.55992769 171.13721764 212.54173038 170.38688278 212.52298164 C136.31002491 211.62983008 104.65804678 207.60734018 79.9296875 182.04296875 C79.29289063 181.36878906 78.65609375 180.69460938 78 180 C73.51653955 175.30341731 73.51653955 175.30341731 68 172 C61.10751428 172.72259931 57.18157618 177.43814908 52.87109375 182.5 C45.3666578 192.1658209 39.13129257 202.75976312 33.07421875 213.375 C32.55472656 214.2825 32.03523437 215.19 31.5 216.125 C31.0771875 216.89070312 30.654375 217.65640625 30.21875 218.4453125 C29.8165625 218.95835937 29.414375 219.47140625 29 220 C25.39853772 220 25.06042309 219.45307966 22.55859375 217.03515625 C21.56581421 216.08817871 21.56581421 216.08817871 20.55297852 215.12207031 C19.50581665 214.10258301 19.50581665 214.10258301 18.4375 213.0625 C16.99829327 211.68265709 15.55818982 210.30374888 14.1171875 208.92578125 C13.0648291 207.91572021 13.0648291 207.91572021 11.99121094 206.88525391 C8.65908487 203.73043813 5.19905772 200.72907143 1.72265625 197.734375 C0 196 0 196 -1 193 C0.32274608 190.43642102 1.68727928 188.09951311 3.25 185.6875 C3.70455566 184.9754541 4.15911133 184.2634082 4.62744141 183.52978516 C8.89712555 176.95508507 13.57359646 170.77442234 18.56591797 164.73535156 C19.53719325 163.56003241 20.5021987 162.37950859 21.46142578 161.19433594 C38.28053531 140.42986617 38.28053531 140.42986617 48 138 C48 104.67 48 71.34 48 37 C32.16 37 16.32 37 0 37 C0 24.79 0 12.58 0 0 Z " fill="#FFFFFF" transform="translate(844,156)"/>
<path d="M0 0 C58.08 0 116.16 0 176 0 C176.1613254 72.50232184 176.1613254 72.50232184 176.1953125 102.80664062 C176.20314352 109.74259478 176.21122532 116.67854858 176.21972656 123.61450195 C176.22078156 124.4837633 176.22183655 125.35302465 176.22292352 126.24862725 C176.24030201 140.26658226 176.27182691 154.28447138 176.30861118 168.30238738 C176.34606956 182.69767401 176.36824619 197.09292624 176.37635398 211.48825961 C176.38183161 220.364874 176.39910742 229.24130218 176.43166587 238.11785922 C176.45287427 244.21189044 176.45918579 250.30582593 176.45400551 256.39989134 C176.45145351 259.91141646 176.45525559 263.4226171 176.4768219 266.93408394 C176.49682883 270.7527134 176.49189914 274.57055691 176.48101807 278.38920593 C176.49266943 279.48360495 176.5043208 280.57800396 176.51632524 281.70556659 C176.42930519 293.06413511 173.59827064 304.29107727 166 313 C156.71116442 322.10510037 144.39092076 324.17618338 131.8828125 324.09765625 C131.02565643 324.0962413 130.16850037 324.09482635 129.28536987 324.09336853 C126.5652101 324.08780022 123.84513462 324.07525364 121.125 324.0625 C119.27343869 324.0574809 117.42187609 324.05291871 115.5703125 324.04882812 C111.04684285 324.03784117 106.52343568 324.02059852 102 324 C100.06900947 318.99818143 98.36736716 314.05393843 96.95703125 308.875 C96.78370773 308.24263428 96.61038422 307.61026855 96.43180847 306.95874023 C95.8885154 304.97343523 95.350412 302.98676891 94.8125 301 C94.44110052 299.63922862 94.06935848 298.27855069 93.69726562 296.91796875 C92.79481236 293.61288016 91.89582815 290.30688925 91 287 C92.05912598 287.01571045 93.11825195 287.0314209 94.20947266 287.04760742 C98.15666026 287.10210122 102.10381489 287.13642046 106.05126953 287.16479492 C107.75640463 287.17983738 109.46150132 287.20027653 111.16650391 287.22631836 C113.62412012 287.26290284 116.08122269 287.27977173 118.5390625 287.29296875 C119.29555084 287.30845261 120.05203918 287.32393646 120.83145142 287.33988953 C125.6111881 287.34139316 128.86438769 286.6522456 133 284 C137.33835936 277.26806306 137.14982313 270.05060549 137.15821838 262.31900024 C137.16315636 261.35015534 137.16809434 260.38131043 137.17318195 259.38310659 C137.18852631 256.14033447 137.1969093 252.89758211 137.20532227 249.65478516 C137.21490319 247.3288048 137.2249134 245.00282617 137.23532104 242.67684937 C137.26235289 236.36336752 137.28337181 230.04987822 137.30332303 223.73637056 C137.32297739 217.80649962 137.34712134 211.87664839 137.37124526 205.9467942 C137.41887282 194.20363728 137.46215006 182.46046854 137.50268555 170.71728516 C137.54206511 159.31167684 137.58350839 147.90607907 137.62768555 136.50048828 C137.63043505 135.78996555 137.63318456 135.07944282 137.63601738 134.3473891 C137.65995302 128.16660576 137.68404474 121.98582303 137.70815182 115.80504036 C137.81170468 89.20338059 137.90500838 62.60169491 138 36 C92.46 36 46.92 36 0 36 C0 24.12 0 12.24 0 0 Z " fill="#FFFFFF" transform="translate(1394,48)"/>
<path d="M0 0 C2.47583008 1.4050293 2.47583008 1.4050293 4.95703125 3.38671875 C9.24185748 6.67945238 13.56883554 9.79232385 18.07421875 12.76953125 C18.68849228 13.17728287 19.30276581 13.58503448 19.93565369 14.00514221 C21.20354623 14.84607348 22.47204293 15.68609451 23.74111938 16.52523804 C27.0472513 18.71178769 30.34781551 20.90670776 33.6484375 23.1015625 C34.28971085 23.52783432 34.93098419 23.95410614 35.59169006 24.39329529 C40.69149122 27.78663609 45.76651593 31.21452392 50.8125 34.6875 C51.45082764 35.12618408 52.08915527 35.56486816 52.74682617 36.0168457 C56.86175994 38.86175994 56.86175994 38.86175994 58 40 C58.49949688 48.07643008 57.75545977 56.24117245 57.1953125 64.296875 C57.11127167 65.52988342 57.02723083 66.76289185 56.94064331 68.03326416 C56.76272641 70.62176128 56.58277482 73.21011929 56.40087891 75.79833984 C56.12487709 79.75176049 55.8610134 83.70587563 55.59765625 87.66015625 C55.42261544 90.18494728 55.24685892 92.70968881 55.0703125 95.234375 C54.95455368 96.99862823 54.95455368 96.99862823 54.8364563 98.79852295 C53.97800017 110.66764972 53.97800017 110.66764972 52 115 C49.12670898 117.06396484 49.12670898 117.06396484 45.49609375 118.7109375 C44.53836815 119.15863998 44.53836815 119.15863998 43.56129456 119.61538696 C41.52997978 120.55898246 39.48509827 121.46736385 37.4375 122.375 C35.39052227 123.31170776 33.34676701 124.25520886 31.30299377 125.19888306 C29.45486056 126.04747499 27.59952322 126.88032418 25.74389648 127.71240234 C23.14382814 128.74292391 23.14382814 128.74292391 22 130 C22.29390226 132.02468133 22.66918427 134.03756104 23.07421875 136.04296875 C23.32776123 137.32848633 23.58130371 138.61400391 23.8425293 139.93847656 C23.98040863 140.62945435 24.11828796 141.32043213 24.26034546 142.03234863 C32.5028741 183.6189295 36.70578492 226.57448429 36 269 C34.31301918 268.38655243 32.65172812 267.70286303 31 267 C29.81535156 266.51273437 28.63070312 266.02546875 27.41015625 265.5234375 C23.33388784 263.12070067 22.46834305 259.99210668 21.20117188 255.59008789 C20.8231543 254.12236938 20.8231543 254.12236938 20.4375 252.625 C20.00727539 251.09057251 20.00727539 251.09057251 19.56835938 249.52514648 C18.68608073 246.35658784 17.84095269 243.17974384 17 240 C16.49304843 238.1439391 15.98402863 236.28844151 15.47265625 234.43359375 C14.48431732 230.83738259 13.5083453 227.23810848 12.5390625 223.63671875 C10.33473267 215.50196569 7.98844996 207.40950394 5.5703125 199.3359375 C4.65253955 196.27063996 3.78591651 193.21642996 3.0546875 190.1015625 C0.84275276 181.57594995 -3.74572224 178.55717449 -11 174 C-11.66572021 173.65573975 -12.33144043 173.31147949 -13.01733398 172.95678711 C-16.73234755 170.73873443 -18.6279666 169.01163919 -20.14599609 164.88378906 C-21.20476585 160.38477087 -22.14147919 155.87786988 -22.88989258 151.31762695 C-24.35563567 142.7482609 -26.47033166 137.34065938 -33.71875 132.19140625 C-36.42923315 130.37242666 -39.19874662 128.67491066 -42 127 C-43.40772714 126.13241149 -44.81454745 125.26334987 -46.22045898 124.39282227 C-49.04259459 122.65937864 -51.86689992 120.92950936 -54.69335938 119.203125 C-55.38969482 118.77708984 -56.08603027 118.35105469 -56.8034668 117.91210938 C-58.24433705 117.04307059 -59.69423971 116.18885898 -61.15209961 115.34863281 C-63.30606917 114.10007922 -65.41618051 112.79587606 -67.52734375 111.4765625 C-68.18024887 111.11881744 -68.83315399 110.76107239 -69.50584412 110.39248657 C-71.55490849 109.06409732 -72.7129733 108.08692119 -74 106 C-74.66747784 101.61736995 -74.35296704 97.40445425 -74 93 C-73.94268204 91.96278809 -73.88536407 90.92557617 -73.8263092 89.85693359 C-73.64408958 86.70649539 -73.40884335 83.56382422 -73.16015625 80.41796875 C-73.07374374 79.27894608 -72.98733124 78.1399234 -72.89830017 76.96638489 C-72.71649069 74.58231187 -72.53234986 72.19841556 -72.34594727 69.81469727 C-72.06188177 66.17958864 -71.78522131 62.54397334 -71.50976562 58.90820312 C-71.33115903 56.57809201 -71.15213707 54.24801269 -70.97265625 51.91796875 C-70.89032242 50.84073044 -70.80798859 49.76349213 -70.72315979 48.65361023 C-70.49646307 45.76764638 -70.25101867 42.88393295 -70 40 C-69.94214325 39.19841461 -69.8842865 38.39682922 -69.82467651 37.57095337 C-69.63061523 35.41137695 -69.63061523 35.41137695 -69 32 C-66.28618696 29.78464242 -64.11315642 28.50954491 -61 27 C-59.92878906 26.45214844 -58.85757813 25.90429688 -57.75390625 25.33984375 C-55.11799155 23.99746667 -52.47110301 22.6798255 -49.81640625 21.375 C-46.2522091 19.62273524 -42.69995967 17.84810075 -39.15234375 16.0625 C-33.11130322 13.02190983 -27.05819655 10.00623515 -21 7 C-19.79126221 6.39599365 -19.79126221 6.39599365 -18.55810547 5.77978516 C-16.50303972 4.75700205 -14.44109403 3.75027083 -12.375 2.75 C-11.26898438 2.20859375 -10.16296875 1.6671875 -9.0234375 1.109375 C-5.6657518 -0.12264404 -3.55371695 -0.31998187 0 0 Z " fill="#FEFEFE" transform="translate(279,48)"/>
<path d="M0 0 C4.5412753 0.49070547 8.42006262 2.43007629 12.48828125 4.37890625 C13.19147995 4.71043198 13.89467865 5.0419577 14.6191864 5.38352966 C16.85277997 6.4380161 19.08264821 7.50012751 21.3125 8.5625 C22.83114031 9.28110616 24.35001808 9.99921071 25.86914062 10.71679688 C29.58220221 12.47206752 33.291943 14.23418316 37 16 C36.22956572 22.04979606 34.72347737 27.24433293 32.625 32.9375 C32.2734082 33.89406494 31.92181641 34.85062988 31.55957031 35.83618164 C24.0152888 55.91785925 14.92793657 77.10809514 3 95 C2.69723882 97.01655175 2.69723882 97.01655175 2.73828697 99.25786877 C2.73082148 100.13120741 2.72335599 101.00454605 2.71566427 101.90434951 C2.717599 102.86445711 2.71953374 103.82456471 2.7215271 104.81376648 C2.7157347 105.83313429 2.7099423 106.8525021 2.70397437 107.90275985 C2.68690548 111.33453753 2.68409193 114.76618128 2.68115234 118.19799805 C2.67185893 120.65161471 2.66169114 123.1052282 2.65071106 125.55883789 C2.62900983 130.84955173 2.61341788 136.14023006 2.60334396 141.43097496 C2.58876823 149.08052607 2.56323456 156.73000961 2.53501268 164.37952111 C2.48952453 176.78986143 2.4529181 189.20021147 2.421875 201.6105957 C2.39169773 213.66725369 2.35735126 225.7238879 2.31738281 237.78051758 C2.31492126 238.52349131 2.31245972 239.26646503 2.30992357 240.03195312 C2.29754913 243.75917519 2.28509257 247.48639698 2.27259517 251.21361864 C2.16899709 282.14238075 2.08035035 313.07116835 2 344 C-11.2 344 -24.4 344 -38 344 C-38.33 281.63 -38.66 219.26 -39 155 C-47.69332011 164.39819968 -47.69332011 164.39819968 -56.1328125 173.9453125 C-60.24223634 178.46739815 -64.64513376 182.71600862 -69 187 C-71 186 -71 186 -72.34448242 182.47753906 C-72.8568438 180.90971728 -73.35984082 179.33881674 -73.85546875 177.765625 C-74.12136307 176.93544861 -74.38725739 176.10527222 -74.66120911 175.24993896 C-75.22231942 173.48916115 -75.77939074 171.72709198 -76.33276367 169.96386719 C-77.18099774 167.27064529 -78.0496093 164.58459353 -78.91992188 161.8984375 C-79.46219626 160.18789854 -80.00325178 158.47697261 -80.54296875 156.765625 C-80.80434128 155.96336487 -81.06571381 155.16110474 -81.33500671 154.33453369 C-83.55551016 147.14535197 -83.55551016 147.14535197 -82 143 C-80.18576728 140.69551345 -78.3633775 138.58009828 -76.375 136.4375 C-42.46103578 98.52111962 -18.19336932 51.84438468 -2.0234375 3.8671875 C-1 1 -1 1 0 0 Z " fill="#FFFFFF" transform="translate(513,32)"/>
<path d="M0 0 C12.87 0 25.74 0 39 0 C39 92.73 39 185.46 39 281 C26.13 281 13.26 281 0 281 C0 188.27 0 95.54 0 0 Z " fill="#FFFFFF" transform="translate(1262,94)"/>
<path d="M0 0 C1.51953125 2.14453125 1.51953125 2.14453125 2.8125 4.8125 C3.25207031 5.68519531 3.69164062 6.55789063 4.14453125 7.45703125 C5.08899556 10.26454846 4.826536 11.25059199 4 14 C-13.02408857 18.08279498 -29.50844931 20.91804841 -47 22 C-47.33 27.28 -47.66 32.56 -48 38 C-31.17 38 -14.34 38 3 38 C3 46.68363587 2.96402757 53.28392726 0.875 61.375 C0.54048828 62.7194519 0.54048828 62.7194519 0.19921875 64.09106445 C-2.79646399 75.67140571 -7.38476345 86.44037375 -13 97 C-7.00525354 104.77696837 0.57216709 110.06217384 9 115 C7.53967505 120.31027254 5.01679014 124.46330032 2 129 C-7.97884391 126.19762036 -16.11829564 118.53595091 -23 111 C-25.95200387 112.31129786 -27.75867538 113.64302618 -29.875 116.0625 C-33.32011095 119.6204421 -37.12281318 122.30511514 -41.25 125 C-41.86472168 125.41000244 -42.47944336 125.82000488 -43.11279297 126.24243164 C-44.69037206 127.24742881 -46.34223644 128.1336311 -48 129 C-51.82053924 127.72648692 -52.23021375 126.37362475 -54.1875 122.9375 C-54.71730469 122.01839844 -55.24710938 121.09929687 -55.79296875 120.15234375 C-56.19128906 119.44207031 -56.58960938 118.73179687 -57 118 C-58.65 120.97 -60.3 123.94 -62 127 C-65 127 -65 127 -66.60546875 125.6875 C-67.12753906 125.130625 -67.64960937 124.57375 -68.1875 124 C-68.71730469 123.443125 -69.24710938 122.88625 -69.79296875 122.3125 C-70.19128906 121.879375 -70.58960938 121.44625 -71 121 C-71.33 123.31 -71.66 125.62 -72 128 C-76.95 128 -81.9 128 -87 128 C-87 112.16 -87 96.32 -87 80 C-90.96 80 -94.92 80 -99 80 C-99.0928125 82.8153125 -99.0928125 82.8153125 -99.1875 85.6875 C-99.65199878 92.21038999 -100.80722878 98.38981868 -102.3125 104.75 C-102.51319092 105.61197998 -102.71388184 106.47395996 -102.9206543 107.36206055 C-106.08181103 120.20387705 -106.08181103 120.20387705 -109 125 C-110.98046875 125.86645508 -110.98046875 125.86645508 -113 126 C-115.39453125 124.55859375 -115.39453125 124.55859375 -117.8125 122.4375 C-118.62332031 121.75558594 -119.43414063 121.07367187 -120.26953125 120.37109375 C-122 118 -122 118 -121.8828125 115.15234375 C-121.59148438 114.11207031 -121.30015625 113.07179688 -121 112 C-120.70222656 110.90945313 -120.40445313 109.81890625 -120.09765625 108.6953125 C-119.75605469 107.51710938 -119.41445313 106.33890625 -119.0625 105.125 C-116.86467764 97.16791329 -115.68233173 89.2322136 -115 81 C-114.9167749 80.0291748 -114.8335498 79.05834961 -114.74780273 78.05810547 C-113.69226114 63.78530483 -113.66494501 49.46523855 -113.46777344 35.16052246 C-113.4168496 31.52624414 -113.36153994 27.89203256 -113.30664062 24.2578125 C-113.20022555 17.17193226 -113.09894678 10.08598904 -113 3 C-108.05 3 -103.1 3 -98 3 C-98 13.56 -98 24.12 -98 35 C-95.03 35 -92.06 35 -89 35 C-89 23.45 -89 11.9 -89 0 C-84.05 0 -79.1 0 -74 0 C-73 1 -73 1 -72.88647461 4.23461914 C-72.88663369 5.66814126 -72.89232593 7.10166912 -72.90234375 8.53515625 C-72.9037587 9.28840683 -72.90517365 10.04165741 -72.90663147 10.81773376 C-72.91224624 13.2326956 -72.92480117 15.64756601 -72.9375 18.0625 C-72.9425131 19.69596221 -72.94707634 21.32942586 -72.95117188 22.96289062 C-72.96222046 26.97529585 -72.97949494 30.98763241 -73 35 C-70.69 35 -68.38 35 -66 35 C-66 40.28 -66 45.56 -66 51 C-76.56 51 -87.12 51 -98 51 C-98 55.29 -98 59.58 -98 64 C-89.42 64 -80.84 64 -72 64 C-71.67 79.18 -71.34 94.36 -71 110 C-67.55971318 99.84560155 -67.55971318 99.84560155 -65.3125 89.5625 C-65.19583984 88.91474609 -65.07917969 88.26699219 -64.95898438 87.59960938 C-63.05024819 76.37365249 -62.83603805 64.96484234 -62.68359375 53.60546875 C-62.66281265 52.29210037 -62.64203156 50.97873199 -62.62062073 49.62556458 C-62.56617238 46.18163557 -62.5164322 42.73765515 -62.46777344 39.29364014 C-62.41698368 35.76016825 -62.36160181 32.2267684 -62.30664062 28.69335938 C-62.20000817 21.79563565 -62.09836424 14.89784647 -62 8 C-60.59207939 7.89137131 -60.59207939 7.89137131 -59.15571594 7.7805481 C-44.80200508 6.66121031 -11.39594365 -4.9479441 0 0 Z M-48 52 C-48.01458252 52.61182129 -48.02916504 53.22364258 -48.04418945 53.85400391 C-48.58475905 74.37272701 -50.41202277 94.20097407 -56 114 C-46.93695603 110.77722083 -39.41910824 104.01063016 -33 97 C-34.35324874 92.74875632 -35.97628939 88.71597769 -37.75 84.625 C-42.12581461 74.15674721 -44.44501481 63.02094094 -47 52 C-47.33 52 -47.66 52 -48 52 Z M-33 52 C-29.38635007 66.79462546 -29.38635007 66.79462546 -24 81 C-23.34 81 -22.68 81 -22 81 C-15.42590408 67.03899986 -15.42590408 67.03899986 -13 52 C-19.6 52 -26.2 52 -33 52 Z " fill="#FFFFFF" transform="translate(1108,392)"/>
<path d="M0 0 C37.29 0 74.58 0 113 0 C113 4.62 113 9.24 113 14 C111.08935701 15.91064299 108.26172105 15.12014611 105.71983337 15.12442017 C104.36469383 15.11902725 104.36469383 15.11902725 102.98217773 15.11352539 C102.03593536 15.11367142 101.08969299 15.11381744 100.11477661 15.1139679 C96.97102608 15.11326836 93.82733399 15.10547409 90.68359375 15.09765625 C88.51025932 15.09579221 86.33692448 15.09436824 84.16358948 15.09336853 C78.43098805 15.08954221 72.69841177 15.07971097 66.96582031 15.06866455 C60.0942868 15.05665886 53.2227449 15.05204873 46.35120392 15.04621124 C35.90078509 15.03649927 25.45042151 15.0173435 15 15 C15 44.37 15 73.74 15 104 C48.66 104 82.32 104 117 104 C117 108.95 117 113.9 117 119 C78.39 119 39.78 119 0 119 C0 79.73 0 40.46 0 0 Z " fill="#FFFFFF" transform="translate(749,396)"/>
<path d="M0 0 C1.27875 0.00257813 2.5575 0.00515625 3.875 0.0078125 C5.15375 0.00523437 6.4325 0.00265625 7.75 0 C10.875 0.1328125 10.875 0.1328125 11.875 1.1328125 C11.96365208 4.0171507 11.99021296 6.87743408 11.97265625 9.76171875 C11.9712413 10.62594955 11.96982635 11.49018036 11.96836853 12.38059998 C11.96275239 15.15220542 11.95019719 17.9237313 11.9375 20.6953125 C11.93248708 22.5696603 11.92792381 24.44400935 11.92382812 26.31835938 C11.91277772 30.92320794 11.8955023 35.52799671 11.875 40.1328125 C12.77855225 40.12757568 13.68210449 40.12233887 14.61303711 40.11694336 C17.95451489 40.09993564 21.29594692 40.08737917 24.63745117 40.07788086 C26.08570073 40.07284149 27.53394517 40.06600997 28.98217773 40.05737305 C31.05974588 40.04529003 33.13724697 40.03958039 35.21484375 40.03515625 C36.46644287 40.02991943 37.71804199 40.02468262 39.00756836 40.01928711 C41.875 40.1328125 41.875 40.1328125 42.875 41.1328125 C42.875 45.7528125 42.875 50.3728125 42.875 55.1328125 C32.645 55.1328125 22.415 55.1328125 11.875 55.1328125 C11.875 72.9528125 11.875 90.7728125 11.875 109.1328125 C22.69033243 109.09321255 22.69033243 109.09321255 33.50561523 109.04272461 C34.85660727 109.03980534 36.20760019 109.03725681 37.55859375 109.03515625 C38.26600708 109.03004028 38.97342041 109.02492432 39.70227051 109.01965332 C41.42692617 109.01934218 43.15146838 109.07055489 44.875 109.1328125 C45.875 110.1328125 45.875 110.1328125 46.0078125 113.2578125 C46.00523437 114.5365625 46.00265625 115.8153125 46 117.1328125 C46.00386719 119.0509375 46.00386719 119.0509375 46.0078125 121.0078125 C45.875 124.1328125 45.875 124.1328125 44.875 125.1328125 C42.28860962 125.22789071 39.7290144 125.25837626 37.14233398 125.24633789 C35.92779541 125.24655693 35.92779541 125.24655693 34.6887207 125.2467804 C31.99948492 125.24608104 29.31031751 125.2382876 26.62109375 125.23046875 C24.76164284 125.22860465 22.90219144 125.22718071 21.04273987 125.22618103 C16.13870904 125.22235521 11.23470764 125.21252438 6.33068848 125.20147705 C1.33048908 125.19126431 -3.66971506 125.18668371 -8.66992188 125.18164062 C-18.48829628 125.17090217 -28.3066411 125.15330485 -38.125 125.1328125 C-38.125 119.8528125 -38.125 114.5728125 -38.125 109.1328125 C-26.905 109.1328125 -15.685 109.1328125 -4.125 109.1328125 C-4.125 91.3128125 -4.125 73.4928125 -4.125 55.1328125 C-13.695 55.1328125 -23.265 55.1328125 -33.125 55.1328125 C-33.125 50.1828125 -33.125 45.2328125 -33.125 40.1328125 C-23.555 40.1328125 -13.985 40.1328125 -4.125 40.1328125 C-4.13660156 37.32910156 -4.14820313 34.52539062 -4.16015625 31.63671875 C-4.16794633 28.93286248 -4.17402337 26.22900744 -4.17993164 23.52514648 C-4.18497244 21.6403752 -4.19180498 19.75560785 -4.20043945 17.87084961 C-4.21251617 15.16779614 -4.21823068 12.46479419 -4.22265625 9.76171875 C-4.22781754 8.91380264 -4.23297882 8.06588654 -4.23829651 7.192276 C-4.23849195 5.17210182 -4.18706211 3.15203316 -4.125 1.1328125 C-3.125 0.1328125 -3.125 0.1328125 0 0 Z " fill="#FFFFFF" transform="translate(576.125,390.8671875)"/>
<path d="M0 0 C4.85673854 1.60950056 8.63855417 4.35717747 12.75 7.3125 C13.4937085 7.84302979 14.23741699 8.37355957 15.00366211 8.92016602 C37.74373218 25.24373236 59.42738466 43.02281197 80 62 C78.70176525 65.81562395 77.25033142 68.07090879 74.3125 70.8125 C70.97759172 74.02144952 67.8923686 77.32964344 64.875 80.8359375 C61.31333034 84.9466979 57.64665814 88.96469576 54 93 C51.15268674 91.70722863 49.11038088 90.35425174 46.91894531 88.13012695 C46.34444641 87.5522493 45.76994751 86.97437164 45.17803955 86.37898254 C44.56756775 85.75505112 43.95709595 85.13111969 43.328125 84.48828125 C42.68687683 83.84183151 42.04562866 83.19538177 41.38494873 82.52934265 C39.33515238 80.46175974 37.29214555 78.38763776 35.25 76.3125 C33.22133738 74.25603754 31.1911744 72.20111681 29.15789795 70.1492157 C27.89497334 68.87423441 26.6347266 67.59659246 25.37774658 66.31575012 C21.09886952 61.98927535 16.61941515 57.95883017 12 54 C11.4833931 53.55065598 10.96678619 53.10131195 10.43452454 52.63835144 C0.01686251 43.57969928 -10.95008768 35.26590844 -22 27 C-20.49928337 21.92432783 -17.4017248 18.89286305 -13.8125 15.1875 C-12.63717307 13.95002338 -11.46268822 12.71174642 -10.2890625 11.47265625 C-9.72348633 10.87855957 -9.15791016 10.28446289 -8.57519531 9.67236328 C-5.61922344 6.53404844 -2.79937664 3.27781555 0 0 Z " fill="#FFFFFF" transform="translate(1091,226)"/>
<path d="M0 0 C0.66 0.33 1.32 0.66 2 1 C2.71435547 3.57495117 2.71435547 3.57495117 3.3671875 7.04296875 C3.61106201 8.32848633 3.85493652 9.61400391 4.10620117 10.93847656 C4.36351981 12.3546269 4.61975657 13.77097417 4.875 15.1875 C5.0066153 15.90627319 5.13823059 16.62504639 5.27383423 17.36560059 C12.628528 57.63799081 16.68162297 99.02688574 16 140 C14.31301918 139.38655243 12.65172812 138.70286303 11 138 C9.81535156 137.51273438 8.63070312 137.02546875 7.41015625 136.5234375 C3.33388784 134.12070067 2.46834305 130.99210668 1.20117188 126.59008789 C0.94916016 125.61160889 0.69714844 124.63312988 0.4375 123.625 C0.15068359 122.60204834 -0.13613281 121.57909668 -0.43164062 120.52514648 C-1.31391927 117.35658784 -2.15904731 114.17974384 -3 111 C-3.50695157 109.1439391 -4.01597137 107.28844151 -4.52734375 105.43359375 C-5.51568268 101.83738259 -6.4916547 98.23810848 -7.4609375 94.63671875 C-9.66526733 86.50196569 -12.01155004 78.40950394 -14.4296875 70.3359375 C-15.34746045 67.27063996 -16.21408349 64.21642996 -16.9453125 61.1015625 C-19.15724724 52.57594995 -23.74572224 49.55717449 -31 45 C-31.65484375 44.6695166 -32.3096875 44.3390332 -32.984375 43.99853516 C-38.20469428 40.92453651 -39.98984042 37.36408789 -41.53125 31.6328125 C-42.24119316 28.80775564 -42.87490253 25.96983133 -43.5 23.125 C-43.84612482 21.65818265 -44.1950593 20.19202531 -44.546875 18.7265625 C-45.39715833 15.1580818 -46.20891722 11.58212966 -47 8 C-42.97305034 9.54743274 -40.19750528 11.28888102 -36.94140625 14.07421875 C-34.0256559 15.46462686 -32.12110087 14.7149019 -29 14 C-26.68039466 13.00915708 -24.3949591 11.93619816 -22.140625 10.8046875 C-21.51017273 10.49298615 -20.87972046 10.18128479 -20.23016357 9.86013794 C-18.23298301 8.87250859 -16.24097828 7.87506776 -14.25 6.875 C-11.61374165 5.55087215 -8.97270472 4.23710155 -6.328125 2.9296875 C-5.1618457 2.34429199 -3.99556641 1.75889648 -2.79394531 1.15576172 C-1.87194336 0.77436035 -0.94994141 0.39295898 0 0 Z " fill="#EC6727" transform="translate(299,177)"/>
<path d="M0 0 C4.10217864 2.28571577 7.59271058 5.05950018 11.125 8.125 C12.27787803 9.11547773 13.43153643 10.1050478 14.5859375 11.09375 C15.44590332 11.83044922 15.44590332 11.83044922 16.32324219 12.58203125 C18.76105538 14.64359488 21.25708223 16.63066579 23.75 18.625 C28.07306299 22.13866513 31.99833595 25.8907515 35.8828125 29.87890625 C37.87430728 31.87407538 39.92379263 33.72753901 42.0625 35.5625 C48.40255511 41.0219919 54.11496525 46.98537804 59.5546875 53.3359375 C60.65402798 54.60166464 61.8145434 55.8145434 63 57 C62.79960479 61.06889413 60.23687749 63.09859969 57.4375 65.8125 C56.53128906 66.69292969 55.62507812 67.57335937 54.69140625 68.48046875 C51.84031265 71.1494896 48.92863063 73.7240383 45.9609375 76.26171875 C42.4822702 79.34539793 39.24677437 82.67551028 36 86 C32.28376775 84.50524881 30.54417689 82.46119521 28.125 79.3125 C15.3089655 63.27677657 0.46275862 48.73354583 -15.58203125 35.94140625 C-19.15393119 33.07349951 -22.58070635 30.04699233 -26 27 C-24.33438748 22.66729907 -21.12555752 19.86474357 -17.875 16.6875 C-17.00029053 15.8224585 -17.00029053 15.8224585 -16.10791016 14.93994141 C-12.38138461 11.27942683 -8.58161107 7.73472025 -4.5859375 4.3671875 C-2.97717593 2.98032408 -1.48334641 1.51930632 0 0 Z " fill="#FFFFFF" transform="translate(877,35)"/>
<path d="M0 0 C1.54662903 2.53063469 2.40251629 5.25091445 3.3125 8.0625 C3.57611328 8.82111328 3.83972656 9.57972656 4.11132812 10.36132812 C4.75931881 12.23461029 5.38210159 14.1165777 6 16 C7.49853516 16.09087891 7.49853516 16.09087891 9.02734375 16.18359375 C10.31769531 16.26738281 11.60804688 16.35117187 12.9375 16.4375 C14.86916016 16.55931641 14.86916016 16.55931641 16.83984375 16.68359375 C20 17 20 17 21 18 C23.43279838 33.27396095 14.19556503 45.91154158 6 58 C6.49927002 58.34780518 6.99854004 58.69561035 7.51293945 59.05395508 C9.78165407 60.63701841 12.04709621 62.22470284 14.3125 63.8125 C15.09818359 64.35970703 15.88386719 64.90691406 16.69335938 65.47070312 C17.45068359 66.00244141 18.20800781 66.53417969 18.98828125 67.08203125 C19.68477783 67.56905518 20.38127441 68.0560791 21.09887695 68.55786133 C22.91555621 69.9359433 24.50812107 71.27492332 26 73 C25.77708303 76.48038106 23.87941295 78.94042381 21.9375 81.75 C21.38964844 82.54921875 20.84179688 83.3484375 20.27734375 84.171875 C19.85582031 84.77515625 19.43429687 85.3784375 19 86 C15 85 15 85 4 76 C4 93.49 4 110.98 4 129 C-0.95 129 -5.9 129 -11 129 C-11.33 112.17 -11.66 95.34 -12 78 C-15.96 81.63 -19.92 85.26 -24 89 C-25.32 89 -26.64 89 -28 89 C-28.72638729 86.92289254 -29.43053408 84.83799688 -30.125 82.75 C-30.51945312 81.58984375 -30.91390625 80.4296875 -31.3203125 79.234375 C-32.08355795 75.60237942 -31.88087337 75.02109961 -30 72 C-28.53881836 70.41943359 -28.53881836 70.41943359 -26.83984375 68.8984375 C-26.2154541 68.33125 -25.59106445 67.7640625 -24.94775391 67.1796875 C-23.95267822 66.28636719 -23.95267822 66.28636719 -22.9375 65.375 C-12.18968593 55.49711344 -2.58809481 45.17618962 4 32 C-6.56 32 -17.12 32 -28 32 C-28 27.05 -28 22.1 -28 17 C-19.585 16.505 -19.585 16.505 -11 16 C-12.65 11.71 -14.3 7.42 -16 3 C-4.87686062 -1.91985011 -4.87686062 -1.91985011 0 0 Z " fill="#FFFFFF" transform="translate(524,391)"/>
<path d="M0 0 C1.73254173 1.98310332 3.34272572 3.9721198 4.9375 6.0625 C5.66839844 7.00935669 5.66839844 7.00935669 6.4140625 7.9753418 C7.95179235 9.97681183 9.47748643 11.98693677 11 14 C11.46680176 14.61423828 11.93360352 15.22847656 12.41455078 15.86132812 C22.22401361 28.81946428 30.97323707 42.39398153 39.25 56.375 C39.74048828 57.19000977 40.23097656 58.00501953 40.73632812 58.84472656 C41.40051758 59.98506348 41.40051758 59.98506348 42.078125 61.1484375 C42.47418945 61.82052246 42.87025391 62.49260742 43.27832031 63.18505859 C44 65 44 65 43 68 C40.91796875 69.36279297 40.91796875 69.36279297 38.1875 70.7421875 C37.19363281 71.25136719 36.19976563 71.76054688 35.17578125 72.28515625 C34.12777344 72.80980469 33.07976562 73.33445312 32 73.875 C29.95776378 74.91294262 27.9160895 75.9519917 25.875 76.9921875 C24.88371094 77.49331055 23.89242188 77.99443359 22.87109375 78.51074219 C19.46471234 80.27765771 16.14366802 82.17051076 12.83984375 84.12158203 C11 85 11 85 8 85 C7.67950684 84.41323486 7.35901367 83.82646973 7.02880859 83.22192383 C-3.84017081 63.4197737 -15.83072009 44.72590309 -29.60546875 26.82177734 C-32.09648332 23.56758429 -34.54652635 20.28253794 -37 17 C-33.60860233 14.18802374 -29.89060152 12.42704832 -25.8984375 10.64453125 C-24.88192612 10.18478157 -24.88192612 10.18478157 -23.84487915 9.71574402 C-22.41882438 9.07217756 -20.99166551 8.43105267 -19.56347656 7.79223633 C-17.37262027 6.81143465 -15.18613745 5.82134624 -13 4.83007812 C-11.61222904 4.20517395 -10.22421643 3.58080609 -8.8359375 2.95703125 C-8.18072113 2.6602095 -7.52550476 2.36338776 -6.85043335 2.05757141 C-2.23067038 0 -2.23067038 0 0 0 Z " fill="#FFFFFF" transform="translate(1329,28)"/>
<path d="M0 0 C3.7602985 0.58107632 6.53035032 1.65199496 9.8125 3.5625 C10.60269531 4.01753906 11.39289063 4.47257812 12.20703125 4.94140625 C12.79871094 5.29074219 13.39039063 5.64007813 14 6 C13.49324417 11.81830767 11.10101692 16.20412773 8.375 21.25 C7.92785645 22.08958252 7.48071289 22.92916504 7.02001953 23.79418945 C3.74436483 29.8523328 0.22949791 35.55207057 -4 41 C-2.4251131 44.88798425 0.22948446 47.45488136 3.19140625 50.31640625 C3.69671371 50.81414047 4.20202118 51.31187469 4.72264099 51.82469177 C6.33118606 53.40888024 7.94600074 54.98643127 9.5625 56.5625 C11.69453923 58.64138853 13.81990993 60.72676595 15.94140625 62.81640625 C16.43306778 63.2914711 16.92472931 63.76653595 17.43128967 64.2559967 C19.71923815 66.51064784 20.96650416 67.89951247 22 71 C20.45672226 72.70509716 18.8896325 74.3886674 17.3125 76.0625 C16.00732422 77.47208984 16.00732422 77.47208984 14.67578125 78.91015625 C12 81 12 81 9.43359375 81.0859375 C6.37966272 79.72318818 4.90341202 78.11867982 2.75 75.5625 C1.97785156 74.66402344 1.20570313 73.76554687 0.41015625 72.83984375 C-0.38519531 71.90269531 -1.18054688 70.96554687 -2 70 C-3.59787016 68.20271564 -5.20181902 66.41081268 -6.8125 64.625 C-7.52019531 63.83351563 -8.22789062 63.04203125 -8.95703125 62.2265625 C-10.91708179 60.09036975 -12.93404914 58.03345275 -15 56 C-17.91892309 57.30286696 -19.75966512 58.62167754 -21.875 61 C-31.44841803 70.77667531 -43.55435149 77.56641199 -56 83 C-56.66 83 -57.32 83 -58 83 C-59.7265625 80.734375 -59.7265625 80.734375 -61.625 77.75 C-62.25664063 76.77546875 -62.88828125 75.8009375 -63.5390625 74.796875 C-65 72 -65 72 -65 68 C-63.97261719 67.5153125 -62.94523438 67.030625 -61.88671875 66.53125 C-49.94537265 60.79610931 -39.79159451 53.97796631 -30 45 C-31.57919741 40.76215377 -34.75446331 38.31724772 -38.125 35.5 C-38.73230957 34.9853418 -39.33961914 34.47068359 -39.96533203 33.94042969 C-47.07503082 27.98653027 -54.52133958 22.47787595 -62 17 C-61.55212676 12.35026146 -59.97814403 10.62972532 -56.4375 7.6875 C-55.19806641 6.64142578 -55.19806641 6.64142578 -53.93359375 5.57421875 C-53.29550781 5.05472656 -52.65742187 4.53523438 -52 4 C-47.16457698 7.09617009 -42.74408937 10.54172153 -38.3125 14.1875 C-37.61423096 14.7561377 -36.91596191 15.32477539 -36.1965332 15.91064453 C-32.97528095 18.53750566 -29.77264765 21.18108761 -26.6171875 23.88671875 C-25.65039062 24.70785156 -24.68359375 25.52898437 -23.6875 26.375 C-22.84574219 27.10460937 -22.00398437 27.83421875 -21.13671875 28.5859375 C-20.43160156 29.05257813 -19.72648438 29.51921875 -19 30 C-14.89042966 28.63014322 -13.81330748 25.88563086 -11.75 22.3125 C-11.3588501 21.64855225 -10.9677002 20.98460449 -10.56469727 20.30053711 C-6.72172519 13.69149978 -3.30296151 6.89267531 0 0 Z " fill="#FFFFFF" transform="translate(834,413)"/>
<path d="M0 0 C4.3208043 3.87382454 6.70797506 7.65590791 7.43359375 13.48046875 C7.44891197 28.01745796 3.75178383 36.36970764 -6 47 C-6.51868652 47.56686523 -7.03737305 48.13373047 -7.57177734 48.71777344 C-10.3635649 51.75693458 -13.17501837 54.77684737 -16 57.78515625 C-18.2564364 60.19234594 -20.4663907 62.629108 -22.625 65.125 C-23.14707031 65.72183594 -23.66914063 66.31867188 -24.20703125 66.93359375 C-25.65482147 68.60217987 -27.08593848 70.28522424 -28.51171875 71.97265625 C-33.97283535 78.306894 -39.0045588 83.06316318 -47 86 C-47.79664063 86.30292969 -48.59328125 86.60585938 -49.4140625 86.91796875 C-66.13284258 92.87298574 -82.25085021 90.31131402 -98 83.0625 C-99.09610596 82.55879883 -99.09610596 82.55879883 -100.21435547 82.04492188 C-104.13249889 80.15925266 -107.11655092 78.35651495 -110 75 C-106.44490337 73.81496779 -105.65821305 74.2941465 -102.1875 75.4375 C-88.67967291 78.98700201 -72.79704519 78.7178287 -60 73 C-58.9275 72.525625 -57.855 72.05125 -56.75 71.5625 C-31.75574762 59.30116864 -16.14739262 31.95180005 -4 8 C-3.54496094 7.10539062 -3.08992188 6.21078125 -2.62109375 5.2890625 C-1.73621059 3.53162906 -0.86549892 1.7670603 0 0 Z " fill="#FEFCFB" transform="translate(234,426)"/>
<path d="M0 0 C1.25462432 3.76387296 0.69628148 6.04612149 0.07421875 9.96484375 C-0.14628814 11.40636812 -0.36648993 12.84793918 -0.58642578 14.28955078 C-0.82811722 15.83891922 -1.07014938 17.38823454 -1.3125 18.9375 C-2.93171139 29.33588578 -4.18779814 39.49122987 -4.51074219 50.01879883 C-5.00095685 65.49093738 -5.00095685 65.49093738 -8.52734375 69.7265625 C-14.87016254 75 -14.87016254 75 -18 75 C-19.06689906 53.3459005 -13.48224073 31.36560183 -6.9375 10.875 C-6.58788208 9.74650635 -6.58788208 9.74650635 -6.23120117 8.59521484 C-4.88809241 4.58219406 -3.77211774 2.09291694 0 0 Z " fill="#FEFAF8" transform="translate(59,125)"/>
</svg>
